<svg xmlns="http://www.w3.org/2000/svg" width="22" height="19" fill="none" viewBox="0 0 22 19"><g id="Group"><path id="Vector" fill="#000" d="M20.3 9.786c2.267-2.243 2.267-5.884 0-8.104C18.03-.561 14.348-.561 12.08 1.682l-1.1 1.11-1.1-1.088C7.612-.56 3.93-.56 1.684 1.682A5.66 5.66 0 0 0 0 5.745a5.75 5.75 0 0 0 1.684 4.063L10.98 19ZM1.436 5.745c0-1.155.45-2.22 1.28-3.02A4.33 4.33 0 0 1 5.771 1.46c1.1 0 2.2.423 3.054 1.266l2.155 2.11 2.156-2.132C14.82 1.038 17.582 1.038 19.244 2.703c.808.8 1.28 1.865 1.28 3.02s-.45 2.22-1.28 3.02l-8.264 8.192-8.263-8.17c-.808-.822-1.28-1.888-1.28-3.02"/></g></svg>